<svg width="105" height="86" viewBox="0 0 105 86" fill="none" xmlns="http://www.w3.org/2000/svg">
<path d="M91.7107 60.7682H88.4798C88.409 60.7526 88.3372 60.7369 88.2644 60.7212M91.7107 60.7682C93.0749 61.0142 96.0616 61.3585 97.0955 60.7682M91.7107 60.7682C93.4315 60.2146 96.4214 58.7429 98.6377 56.3411M91.7107 60.7682C91.7107 61.3984 91.6773 61.9108 91.6221 62.3495M97.0955 60.7682C98.3879 60.0304 103.665 52.3354 103.665 50.8597C103.665 49.384 104.419 47.2758 103.665 45.3784C102.911 43.481 103.126 44.5362 103.126 39.37C103.126 37.578 103.126 38.9484 101.403 35.5752M97.0955 60.7682C97.657 59.925 98.7515 57.859 98.6377 56.3411M101.403 35.5752C101.511 34.8725 101.597 33.3405 101.08 32.8346C100.563 32.3286 99.2135 30.3047 98.6032 29.356M101.403 35.5752C101.059 36.2498 100.326 37.2618 100.003 37.6835M98.6032 29.356C98.4596 29.1101 98.1078 28.3863 97.8494 27.4587C97.5263 26.2992 94.2954 24.8234 93.8646 22.926M98.6032 29.356C98.6894 30.0306 97.9212 30.8318 97.5263 31.1481M93.8646 22.926C92.8307 21.3238 92.5723 20.4313 92.5723 20.1854C92.6082 19.6232 92.3569 18.288 91.0645 17.4447C89.4491 16.3906 86.9721 15.5473 86.5413 14.5986C86.1967 13.8397 85.9669 13.2283 85.8951 13.0175C84.6746 11.5769 81.7165 8.46377 79.6488 7.53616C77.0641 6.37665 77.4948 5.95501 72.9716 4.58468C72.5903 4.46917 72.1938 4.35577 71.787 4.24494M93.8646 22.926C94.0369 23.6006 93.4338 24.9049 93.1108 25.4728M56.7095 2.05483C58.325 2.16024 62.0943 2.05483 62.3097 2.26565C64.1403 2.54857 68.3328 3.30393 71.787 4.24494M56.7095 2.05483C55.4172 1.97051 53.5863 1.38724 52.8325 1.10614C51.6478 1.07101 51.3247 0.790066 48.8477 1.31696C46.5215 1.90726 44.7912 2.19538 44.2168 2.26565C44.0618 2.26565 43.8796 2.26565 43.6783 2.26565M56.7095 2.05483C56.4223 2.33499 55.6756 3.03028 54.9864 3.57013M31.2933 4.26854C27.0931 4.37395 21.0622 7.85248 18.8006 10.804C17.8313 10.804 11.908 13.3338 8.78484 18.6043M31.2933 4.26854C30.8625 4.58477 30.4317 6.06051 31.2933 6.48215M31.2933 4.26854C33.1418 4.22214 34.7817 3.82863 36.1396 3.40253M8.78484 18.6043C8.18175 20.0379 6.88222 21.3098 6.30784 21.7666C4.5847 23.5586 3.93853 23.7694 2 31.886C2.50258 33.5374 2.64618 37.2112 2.64618 39.2647C2.64618 40.3188 4.5129 43.1649 5.87705 43.9027M8.78484 18.6043C10.7664 17.6767 12.2924 18.007 12.8077 18.2881M5.87705 43.9027C5.87705 47.065 10.2926 51.4501 15.0312 52.5463C16.375 52.8572 18.2951 52.6625 19.8775 53.3282M5.87705 43.9027C8.24636 43.2703 8.72023 45.2731 13.2004 45.2731M42.9245 64.036C44.7553 64.5631 44.7553 63.2982 47.34 62.8765C47.4347 62.8633 47.5437 62.8554 47.6631 62.8552M42.9245 64.036C41.2083 63.542 40.6304 63.3594 40.1244 63.37M42.9245 64.036C43.8937 63.6175 46.1338 62.3578 47.34 60.6675M68.7715 74.5771C68.3407 74.5771 68.4484 75.9474 69.4176 78.3718C70.3869 80.7962 71.1868 82.3477 70.71 83.7477C70.1715 85.3289 66.9406 85.1181 65.8637 84.6964C64.7867 84.2748 63.0995 81.4638 62.5251 79.8476C61.5558 77.4231 59.4019 75.5257 58.6481 74.5771C58.2911 74.1279 57.9273 73.617 57.5745 73.1013M68.7715 74.5771C69.2023 74.5771 72.6485 74.5771 77.3871 73.6284C78.2201 73.4616 78.9699 73.3469 79.6488 73.2644M68.7715 74.5771C65.498 74.1766 63.0505 73.3719 61.2328 72.5356M85.7874 72.1526C85.9832 71.9993 86.2012 71.8088 86.4336 71.5896M85.7874 72.1526C85.2705 71.478 84.2722 70.958 83.8377 70.7823M85.7874 72.1526C85.2792 72.5506 84.7283 72.7503 84.0643 72.8667M90.8491 65.5118C91.0011 64.7682 91.2007 64.2344 91.3695 63.6144M90.8491 65.5118C90.4329 64.4998 88.8639 64.4577 88.1315 64.5631M90.8491 65.5118C90.7659 65.919 90.497 66.4731 90.1159 67.0929M63.9252 61.0846C63.8419 61.1468 63.6955 61.1541 63.4944 61.1211M63.9252 61.0846C63.9172 61.0968 63.9093 61.1089 63.9013 61.1211M63.9252 61.0846C64.1881 60.8881 64.4782 60.7082 64.793 60.5439M53.371 63.6144C51.4036 62.514 51.4193 61.4137 52.0002 60.4521M53.371 63.6144C53.5226 63.4066 53.5461 63.1152 53.5137 62.7711M53.371 63.6144C53.8075 63.8586 54.204 64.0988 54.5556 64.3435M53.371 59.6245C53.0085 59.7304 52.6488 59.8644 52.294 60.0305C52.1866 60.1676 52.0871 60.3083 52.0002 60.4521M53.371 59.6245C53.297 59.8251 53.2535 60.0318 53.2321 60.2413M53.371 59.6245C56.1776 58.8048 59.1471 59.6719 61.2328 60.3916M57.248 70.1498C56.128 69.3909 56.1352 68.5687 56.2787 68.2524C56.4542 67.5313 56.4467 66.9221 56.2787 66.3846M57.248 70.1498L57.5745 73.1013M57.248 70.1498C57.9831 70.648 59.223 71.6111 61.2328 72.5356M57.5745 73.1013C56.7583 71.9083 56.0011 70.6896 55.5249 70.1498C54.053 69.0957 50.9586 66.5448 50.3555 64.7739C50.2588 64.4901 50.135 64.2458 49.9922 64.036M61.2328 72.5356L65.6483 78.7935M88.2644 60.7212C88.3004 60.9994 88.3285 61.3376 88.3413 61.717M88.2644 60.7212C86.7369 60.3905 84.7956 60.0358 82.6642 59.738M86.4336 68.147C86.6616 67.9239 86.8642 67.6759 87.0439 67.4092M86.4336 68.147C87.0233 68.3972 88.2304 69.0227 88.3413 69.5237M86.4336 68.147C86.0689 68.504 85.7228 68.8571 85.3893 69.2011M86.4336 68.147C85.7929 68.2314 84.5871 67.9714 84.0643 67.8308M79.6488 73.2644C81.6168 73.025 82.9889 73.0552 84.0643 72.8667M79.6488 73.2644C80.444 73.1319 81.1454 72.8428 81.8027 72.4386M52.0002 60.4521C51.6031 60.1846 50.481 60.0193 48.4169 60.4242M40.1244 63.37C39.5185 63.3827 39.0157 63.6723 36.7858 64.036C33.4768 64.5758 29.1364 62.6237 25.911 60.6675M40.1244 63.37C43.1594 61.9575 45.5327 61.1254 47.34 60.6675M47.34 60.6675C47.7243 60.5702 48.0829 60.4897 48.4169 60.4242M47.6631 62.8552C48.381 62.5461 49.7955 61.8857 49.7093 61.717M47.6631 62.8552C48.3416 62.854 49.3559 63.1017 49.9922 64.036M49.7093 61.717C49.6016 61.5062 49.4939 60.6071 48.4169 60.4242M49.7093 61.717C50.0056 62.2441 50.477 63.4457 49.9922 64.036M100.003 37.6835C99.3212 35.7159 97.8709 31.6541 97.5263 31.1481M100.003 37.6835C100.668 39.5099 101.642 43.2886 101.681 47.1704M97.5263 31.1481C96.4924 30.2205 95.9467 28.5129 95.8031 27.775C95.7672 27.3533 95.437 26.4257 94.4031 26.0884C94.0717 25.9803 93.6135 25.7538 93.1108 25.4728M90.0953 23.5586C90.5561 23.8808 91.2825 24.3684 92.0338 24.8345M90.0953 23.5586C89.126 21.6963 86.0674 18.3513 81.5873 19.8692M90.0953 23.5586C90.0594 23.8045 90.0522 24.3808 90.3107 24.7181M98.6377 56.3411C99.7967 55.0851 100.744 53.5748 101.188 51.8085C101.56 50.3272 101.697 48.7404 101.681 47.1704M93.1108 25.4728C92.764 25.279 92.396 25.0592 92.0338 24.8345M92.0338 24.8345C92.3569 23.6713 92.5292 20.9233 90.6337 19.2368C90.237 18.8838 89.8765 18.5692 89.5407 18.2881M84.9259 15.9691C82.6642 15.5474 79.0026 12.8068 77.7102 10.5931M84.9259 15.9691C86.8088 16.3201 87.8706 16.8903 89.5407 18.2881M84.9259 15.9691C85.0228 17.2691 86.0815 19.553 89.5407 18.2881M84.9259 15.9691C83.9566 13.1073 79.9718 6.75598 71.787 4.24494M81.5873 19.8692C83.3966 21.1341 84.2079 22.0828 84.3874 22.3991M81.5873 19.8692C80.1327 18.0387 77.432 15.3676 74.4794 13.9495M68.0176 13.65C70.0496 12.5491 72.3311 12.9176 74.4794 13.9495M68.0176 13.65C66.115 12.2797 61.1251 10.0661 56.3864 12.1743M68.0176 13.65L69.9561 15.2312M74.4794 13.9495C75.4127 12.6901 76.5902 9.98176 73.8332 9.22281C70.3869 8.27412 68.5561 8.80099 65.756 7.53616M65.756 7.53616C62.9559 6.27133 57.3557 4.58468 56.3864 12.1743M65.756 7.53616C65.8462 7.38822 65.943 7.20843 66.034 7.0092M56.3864 12.1743C55.8173 12.4275 55.361 12.7645 54.9864 13.1507M49.2785 9.64445C48.9963 8.60349 48.9285 7.77661 49.001 7.11461M49.2785 9.64445C49.817 8.94172 51.0878 7.49408 51.8632 7.32543M49.2785 9.64445C48.8118 10.312 47.7277 12.2165 47.1246 14.4933C46.3707 17.3394 40.0167 17.1286 41.7398 26.9317M66.034 7.0092C66.4497 6.09895 66.7456 4.78294 65.756 4.24494C64.7337 3.68918 58.7605 3.46181 54.9864 3.57013M66.034 7.0092L74.4794 7.53616M54.9864 3.57013C53.1942 3.62156 51.8979 3.7487 51.8632 3.95231C51.7772 4.45723 49.2881 4.49184 49.001 7.11461M43.6783 2.26565C42.4815 2.26565 40.6126 2.26565 39.8013 2.26565C39.138 2.26565 37.867 2.86047 36.1396 3.40253M43.6783 2.26565C45.1446 2.65219 48.262 4.16313 49.001 7.11461M49.9247 27.1425C50.0964 23.5564 50.4203 21.6085 50.7832 20.3963M50.7832 20.3963C51.1029 19.3281 51.4528 18.8312 51.7555 18.2881C53.2722 18.0261 53.1777 15.0152 54.9864 13.1507M50.7832 20.3963C49.89 19.6233 49.3294 19.0681 47.7708 18.8151C47.1605 18.6394 45.9615 18.1827 46.0476 17.761M38.7243 3.57013C38.6884 4.25971 38.7674 5.70211 39.3705 5.9551M39.3705 5.9551C39.8874 4.85883 42.1706 3.60094 43.2475 3.10902M39.3705 5.9551C39.0115 6.44701 38.5089 7.51517 39.3705 7.85248M39.3705 7.85248C38.2504 7.85248 38.1858 6.58756 38.2935 5.9551M39.3705 7.85248C39.8874 6.92487 41.309 5.84969 41.9552 5.42805M39.3705 7.85248C38.6884 8.52008 37.3889 10.3191 37.6474 12.1743M37.6474 12.1743C37.7191 12.3639 38.0135 12.7388 38.6166 12.7222M37.6474 12.1743C36.1446 11.4661 31.5759 11.0733 27.4162 11.5689M39.8013 11.6472C39.3795 12.0241 38.9852 12.3813 38.6166 12.7222M33.9857 31.4643C33.9046 29.5585 33.8112 27.9279 33.7366 26.5101M38.6166 12.7222C36.1855 14.9703 34.8746 16.5067 34.2095 18.2881M34.2095 18.2881C32.2323 16.988 27.9547 14.3036 26.6624 13.9663M34.2095 18.2881C33.4664 20.2783 33.5294 22.5743 33.7366 26.5101M33.7366 26.5101C33.6444 24.3092 28.9686 22.4362 25.5854 23.6053M15.1389 31.4643C18.723 31.4643 21.0149 29.1781 22.0767 27.4588M18.8006 23.7694C18.7948 24.5775 19.442 26.4468 22.0767 27.4588M22.0767 27.4588C22.2911 27.1116 22.4553 26.7875 22.5699 26.5101C23.149 24.9751 24.2694 24.06 25.5854 23.6053M25.0469 18.2881C24.6161 19.6544 24.1207 22.6308 25.5854 23.6053M31.2933 6.48215C32.3916 7.01964 35.9242 4.53941 36.1396 3.40253M31.2933 6.48215C26.6624 7.32543 21.1268 8.10546 19.6621 11.6472M27.4162 11.5689C23.5269 12.0323 20.8468 12.7222 19.6621 15.7582C17.0774 15.7582 15.6684 15.9269 14.4927 18.2881C13.8455 19.6207 12.7791 22.0589 12.0236 24.4019M27.4162 11.5689C27.6675 10.7683 28.0193 8.9884 27.4162 8.27412M8.78484 21.7666C9.71243 21.3307 11.3076 20.1983 12.8077 18.2881M15.6774 12.7222C14.9804 15.0273 13.9202 16.8715 12.8077 18.2881M11.1542 28.302C11.2193 27.2175 11.5639 25.8273 12.0236 24.4019M12.0236 24.4019C7.52374 24.4019 1.26512 29.7052 4.92933 33.4671M7.81558 35.2591C6.51005 34.7329 5.56865 34.1235 4.92933 33.4671M7.81558 35.2591C8.16021 34.2472 8.74894 33.6428 9.00023 33.4671M7.81558 35.2591C6.63092 37.7187 6.04937 43.1649 13.2004 45.2731M4.92933 33.4671C4.81445 34.0644 4.43393 34.8375 3.40005 34.8375M13.2004 45.2731C13.0209 45.765 12.1234 46.8542 9.9695 47.2758M13.2004 45.2731C13.344 45.2864 13.7173 45.2249 14.0619 44.8715M12.2311 32.413C13.3081 34.5915 14.8589 39.5598 12.4465 42.0053C12.6449 42.7469 13.1606 43.8824 14.0619 44.8715M17.939 46.8542C16.2245 46.6864 14.9543 45.8507 14.0619 44.8715M17.939 46.8542C19.1237 46.9948 21.6222 47.1915 22.1391 46.8542M17.939 46.8542C17.939 47.489 18.499 48.7368 20.7391 48.6497M22.1391 46.8542C21.5298 47.2608 21.0748 47.9065 20.7391 48.6497M22.1391 46.8542C22.588 46.5613 23.8683 44.2339 26.0162 42.2745M30.9702 39.3701C29.4625 39.6863 26.9604 41.4132 26.0162 42.2745M30.9702 39.3701C28.1701 31.9914 29.204 30.1994 26.447 25.983M30.9702 39.3701C32.7292 39.5458 36.8935 39.7496 39.4782 39.1593M19.8775 53.3282C21.3388 53.9429 22.5122 55.2914 22.6776 58.4493C23.4758 59.0784 24.6015 59.8733 25.911 60.6675M19.8775 53.3282C19.8532 52.2215 20.0304 50.2184 20.7391 48.6497M16.3236 35.4699C23.3238 38.4214 23.1084 40.7404 26.0162 42.2745M39.4782 39.1593C40.8889 38.8371 41.7655 38.2135 42.7091 37.6131M39.4782 39.1593C40.6844 40.6772 40.1962 42.2513 39.8013 42.8486M50.8939 34.5212C48.74 35.5753 48.2016 36.1024 47.9862 36.1024C45.2552 36.1024 43.9265 36.8384 42.7091 37.6131M50.8939 34.5212C51.1524 32.413 49.4939 30.9724 48.6323 30.5156M50.8939 34.5212C51.7763 34.2857 53.7937 33.9917 56.2787 34.9022M58.9711 36.3132C58.0367 35.6676 57.1303 35.2142 56.2787 34.9022M61.5558 27.775C61.0174 29.575 59.2081 33.5204 56.2787 34.9022M39.8013 31.6752C41.0936 32.4363 43.4845 34.6896 42.7091 37.6131M51.8632 10.804C52.9043 11.1387 54.9864 12.0766 54.9864 13.1507M63.4944 14.4933C66.3095 15.5825 71.3492 18.4989 68.9869 21.4504C68.8776 21.5869 67.8022 22.8207 65.8637 20.9233C65.4329 20.5017 64.1266 20.5017 59.725 20.5017C58.2173 20.5017 59.1865 17.4448 59.725 16.7069M70.3869 20.5017C73.3306 19.0746 79.5626 18.0887 80.9411 25.5614M67.2637 29.3561C68.6638 25.456 64.7867 17.761 57.1403 24.5073M88.4798 22.7153C88.1208 23.6991 88.0275 25.983 90.526 27.2479M101.681 47.1704C100.655 45.1325 97.8278 40.9302 94.7262 40.4242M94.7262 40.4242V42.6378M94.7262 40.4242C95.6739 35.6175 93.3261 33.1509 92.0338 32.5184M86.649 25.1397C86.8408 25.2599 87.0421 25.4011 87.2486 25.5614M91.0645 32.5184C91.0645 35.0483 88.8029 36.8402 90.0953 38.9484M91.0645 32.5184C91.0645 29.5773 88.9742 26.9009 87.2486 25.5614M91.0645 32.5184C90.2891 31.1692 88.1975 29.848 87.2486 29.356M87.2486 25.5614V29.356M87.2486 29.356C86.6539 29.0398 85.3351 28.3653 84.8182 28.1966M92.8954 57.5006C88.1043 53.3137 91.8089 54.1825 94.8845 51.176M96.9878 47.9083C96.4343 49.3603 95.6804 50.3979 94.8845 51.176M94.8845 51.176C95.6215 51.7733 97.1386 53.0102 97.3109 53.1788M92.0338 51.176C91.8339 49.2084 91.0156 45.1255 89.3414 44.5352M89.3414 44.5352C91.0156 44.1979 91.8339 43.7622 92.0338 43.5865M89.3414 44.5352C87.4459 45.2941 84.531 44.8514 83.3104 44.5352M83.3104 44.5352C84.6889 46.0531 84.6028 50.5787 84.3874 52.6518M83.3104 44.5352C82.8078 43.4108 81.3288 40.8669 79.4334 39.6863M79.4334 39.6863C78.8303 40.2766 77.4589 40.4242 76.8487 40.4242C75.9009 46.1585 71.6434 49.1381 69.633 49.9111M79.4334 39.6863C80.898 38.5901 82.6283 35.0131 83.3104 33.3617M83.3104 33.3617C83.5976 33.2563 84.2366 33.0244 84.4951 32.9401M83.3104 33.3617C83.052 32.1811 81.6232 29.9183 80.9411 28.9345M25.911 60.6675C27.741 60.9822 31.7887 61.2954 33.3395 60.0305M33.3395 60.0305C34.6319 59.7155 36.8217 61.2344 37.755 62.0333M33.3395 60.0305C31.0779 59.3277 27.4809 56.4465 31.1856 50.5436M31.1856 50.5436C28.8594 50.5436 27.5598 49.7705 27.2008 49.384M31.1856 50.5436C32.3332 50.4241 34.411 50.0575 36.0293 49.384M37.8627 48.2245C36.915 47.2969 36.6781 45.7298 36.6781 45.0622M37.8627 48.2245C42.6528 48.3548 44.3195 47.3184 45.4015 46.5072M37.8627 48.2245C37.4494 48.683 36.7902 49.0674 36.0293 49.384M47.34 45.5893C45.7892 43.8184 46.0476 42.1108 46.3707 41.4783M47.34 45.5893C46.5166 45.5893 46.071 46.0051 45.4015 46.5072M47.34 45.5893H52.294C55.7403 44.8514 54.9433 43.4811 58.6481 45.5893C60.391 45.5893 63.0075 44.7544 65.6307 42.954M47.0169 48.857C46.9092 48.1689 46.4353 46.7355 45.4015 46.5072M38.2935 53.8113C38.22 52.722 37.6642 50.3117 36.0293 49.384M73.9409 30.9373C73.7548 31.6317 73.5423 32.2991 73.3066 32.9401M62.6328 45.9055L65.6307 42.954M65.6307 42.954C68.5999 40.9162 71.5777 37.6413 73.3066 32.9401M77.7102 34.5212C76.3181 34.4861 73.4884 34.1207 73.3066 32.9401M84.3874 58.3439L76.8487 52.1247M76.8487 52.1247L79.4334 50.8598M76.8487 52.1247C75.1255 53.4599 70.8844 54.3521 65.3252 52.6518C63.6021 52.1247 59.8327 53.8113 57.5711 53.8113C57.0101 53.8464 55.3545 53.2842 52.9402 53.2842C50.7863 53.2842 49.9922 55.1816 47.6631 55.8141C46.1912 55.8141 43.1398 55.8141 42.7091 55.8141C42.1706 55.8141 41.6321 55.6032 38.2935 58.3439M88.3413 61.717C88.9028 62.1387 90.3451 62.8555 91.6221 62.3495M88.3413 61.717C88.3572 62.1918 88.349 62.7311 88.3018 63.2982M91.6221 62.3495C91.56 62.8437 91.4702 63.2444 91.3695 63.6144M88.3018 63.2982C89.2106 63.509 91.0965 63.8674 91.3695 63.6144M88.3018 63.2982C88.2675 63.7099 88.2126 64.1362 88.1315 64.5631M88.1315 64.5631C88.0436 65.0251 87.925 65.4878 87.7684 65.9334M87.7684 65.9334C88.3065 65.8632 89.5293 65.9967 90.1159 67.0929M87.7684 65.9334C87.7055 66.1123 87.6366 66.2883 87.561 66.4605M90.1159 67.0929C89.8638 67.503 89.5626 67.9418 89.2337 68.386M87.0439 67.4092C87.6302 67.463 88.8891 67.7338 89.2337 68.386M87.0439 67.4092C87.1105 67.3103 87.174 67.2088 87.2345 67.105M89.2337 68.386C88.9521 68.7662 88.6502 69.1503 88.3413 69.5237M88.3413 69.5237C87.9747 69.9666 87.5984 70.3943 87.2345 70.7823M85.3893 69.2011C85.9123 69.2714 87.0137 69.686 87.2345 70.7823M85.3893 69.2011C85.3423 69.2496 85.2955 69.2979 85.2489 69.3461M87.2345 70.7823C86.957 71.0782 86.6867 71.3509 86.4336 71.5896M84.7105 69.9029C85.1772 69.9964 86.1751 70.4646 86.4336 71.5896M84.7105 69.9029C84.8871 69.7209 85.0662 69.535 85.2489 69.3461M84.7105 69.9029C84.6849 69.9293 84.6593 69.9556 84.6338 69.9819M83.8377 70.7823C84.1 70.527 84.3641 70.2591 84.6338 69.9819M83.8377 70.7823C83.6256 70.9888 83.4146 71.187 83.2027 71.3754M82.6642 71.8297C83.0232 71.8512 83.8058 72.0887 84.0643 72.8667M82.6642 71.8297C82.3829 72.0532 82.0972 72.2575 81.8027 72.4386M82.6642 71.8297C82.8451 71.6859 83.0242 71.5342 83.2027 71.3754M82.6642 59.738C84.0364 60.6436 86.9368 63.256 87.561 66.4605M82.6642 59.738C81.3211 59.5503 79.9024 59.3852 78.4641 59.263M87.561 66.4605C87.0443 66.5211 86.4378 66.5815 85.7874 66.6325M87.561 66.4605C87.4635 66.6827 87.355 66.8983 87.2345 67.105M78.4641 65.7226C78.493 66.2042 79.1909 66.4851 80.2185 66.6325M78.4641 59.263C80.6898 60.9687 85.2705 64.8307 85.7874 66.6325M78.4641 59.263C77.9274 59.2173 77.3879 59.1777 76.8487 59.145M85.7874 66.6325C85.2016 66.6786 84.5801 66.7171 83.9566 66.7414M76.8487 59.145C79.1103 61.068 83.6981 65.2795 83.9566 66.7414M76.8487 59.145C75.9096 59.0882 74.9712 59.0526 74.0486 59.0438M83.9566 66.7414C83.5961 66.7554 83.235 66.7647 82.8796 66.768M74.0486 59.0438C75.7358 59.6129 79.8642 61.9544 82.8796 66.768M74.0486 59.0438C72.824 59.0322 71.6273 59.0678 70.4946 59.1636M82.8796 66.768C82.4356 66.7721 82.0006 66.7669 81.5873 66.7497M70.4946 59.1636C72.8998 59.6102 78.4856 61.7527 81.5873 66.7497M70.4946 59.1636C69.901 59.2138 69.3249 59.2806 68.7715 59.3658M81.5873 66.7497C81.0928 66.7291 80.6293 66.6915 80.2185 66.6325M68.7715 59.3658C70.8636 59.5774 76.0819 61.3271 80.2185 66.6325M68.7715 59.3658C68.4018 59.4227 68.0423 59.4878 67.6945 59.5617M56.2787 66.3846C56.0306 65.5907 55.4322 64.9534 54.5556 64.3435M56.2787 66.3846C58.5404 69.0957 58.3517 70.4372 64.1405 71.8297C68.4875 72.8753 75.5365 71.6411 79.3257 71.752M56.2787 66.3846C56.5297 66.382 56.891 66.3423 57.3486 66.2497M53.2321 60.2413C55.181 60.5471 59.5096 61.0053 61.2328 60.3916M53.2321 60.2413C53.2036 60.5205 53.2144 60.8044 53.2446 61.0846M61.2328 60.3916C61.6696 60.5424 62.0677 60.6867 62.4174 60.8077M53.2446 61.0846C54.974 61.8487 59.2296 62.863 62.4174 60.8077M53.2446 61.0846C53.2838 61.4485 53.3559 61.8061 53.4173 62.1387M62.4174 60.8077C62.8607 60.9611 63.2262 61.077 63.4944 61.1211M53.4173 62.1387C55.0891 62.936 59.445 63.8487 63.4944 61.1211M53.4173 62.1387C53.4587 62.3627 53.4952 62.5754 53.5137 62.7711M53.5137 62.7711C56.0418 63.6464 61.6453 64.5357 63.9013 61.1211M54.5556 64.3435C57.248 64.3694 63.0851 64.0912 64.8944 62.7711C64.4906 63.045 64.0953 63.2994 63.7098 63.5356M63.7098 63.5356C65.9175 63.8409 69.8565 64.3078 72.6485 64.4305M63.7098 63.5356C62.12 64.5095 60.6948 65.1738 59.5096 65.6142M67.6945 59.5617C69.5253 60.0635 73.6393 61.7223 75.4486 64.3435C75.1341 64.4191 74.6497 64.4549 74.0486 64.4602M67.6945 59.5617C66.5943 59.7955 65.6108 60.117 64.793 60.5439M63.9013 61.1211C65.9914 61.2313 70.6669 62.0476 72.6485 64.4305M72.6485 64.4305C73.1595 64.453 73.6321 64.4639 74.0486 64.4602M64.793 60.5439C66.9448 60.6204 71.8085 61.5107 74.0486 64.4602M63.4944 64.4305C67.0379 65.0201 74.7343 65.9142 77.1718 64.7739M63.4944 65.4064C66.2227 65.807 72.8208 66.4732 77.3871 65.9334M59.5096 65.6142C62.3918 66.1543 68.0612 66.9662 73.0793 67.0453M59.5096 65.6142C58.6552 65.9317 57.9254 66.1328 57.3486 66.2497M78.4641 66.7414C76.9061 66.9949 75.0426 67.0762 73.0793 67.0453M60.1558 67.8308C63.2072 68.046 70.0638 68.1901 73.0793 67.0453M81.8027 72.4386C81.4808 71.9735 80.5826 71.7887 79.3257 71.752M79.3257 71.752C78.4167 71.3107 77.1837 70.7253 75.9259 70.1498M70.4946 68.0416C70.8941 67.9299 73.4579 69.0207 75.9259 70.1498M57.3486 66.2497C57.4398 67.5899 58.5369 69.4136 61.5558 70.4391M57.3486 66.2497C57.5902 66.8328 58.2017 67.8677 59.1865 68.8254M75.9259 70.1498C75.2023 70.3062 74.505 70.4437 73.8332 70.5633M61.5558 70.4391C60.6106 70.0276 59.8211 69.4425 59.1865 68.8254M61.5558 70.4391C63.1676 70.9866 65.327 71.3065 68.1735 71.2039M73.8332 70.5633C71.7622 69.661 66.1868 68.0903 59.9404 68.7368M73.8332 70.5633C71.6985 70.9436 69.8209 71.1445 68.1735 71.2039M59.1865 68.8254C59.4388 68.7922 59.6901 68.7627 59.9404 68.7368M59.9404 68.7368C60.5828 69.3042 63.1289 70.5919 68.1735 71.2039M77.1718 67.4092C79.3975 68.1031 84.1289 69.462 85.2489 69.3461M76.6333 68.147C78.3244 68.785 82.292 70.045 84.6338 69.9819M72.6485 68.0416C75.664 68.5687 80.7257 70.9931 83.2027 71.3754M83.9566 67.0929L87.2345 67.105" stroke="#2ECC71" stroke-width="2"/>
</svg>
